**ABCDEFGHIJKLMNOPQRSTUVWXYZabcdefghijklmnopqrstuvwxyz**************************
**PARASOLID !"#$%&'()*+,-./:;<=>?@[\]^_`{|}~0123456789**************************
**PART1;
MC=AMD64;
MC_MODEL=Intel64 Family 6 Model 158 Stepping 9, GenuineIntel;
MC_ID=unknown;
OS=Windows_NT;
OS_RELEASE=unknown;
FRU=Parasolid Version 24.1, build 257,  2-12-2013;
APPL=SolidWorks 2013-2013086;
SITE=;
USER=unknown;
FORMAT=text;
GUISE=transmit;
KEY=Gancho;
FILE=Gancho.x_t;
DATE=Wed Apr 19 17:47:58 2023;
**PART2;
SCH=SCH_2401257_20000;
USFLD_SIZE=0;
**PART3;
**END_OF_HEADER*****************************************************************
T51 : TRANSMIT FILE created by modeller version 240125723 SCH_2401257_20000_1300
6189 0 12 27 CCCCCCCCCCCCCCCCCCCCCCCA16 index_map_offset0 0 1 dA9 index_map82 0
 A17 node_id_index_map82 0 A20 schema_embedding_map82 0 Z1 473 0 2 0 0 0 0 1e3 1
e-8 0 3 0 1 0 1 1 4 5 6 0 7 8 0 0 0 0 0 70 11 CI9 list_type0 0 1 uI10 notransmit
0 0 1 lCCCDCCDI12 finger_index0 0 1 dI12 finger_block1012 0 CZ2 0 4 T1 0 0 2 20
 1 9 9 13 255 4 29 0 1 0 10 0 0 11 0 53 255 5 256 0 12 13 0 0 +-.011497904247823
82 0 .0212804597807352 .0015 0 0 1 1 0 0 31 255 6 244 0 8 14 0 0 --.011497904247
82382 0 .0212804597807352 .0190904538491132 0 -.999817760680333 -.99981776068033
3 0 -.0190904538491132 .0015 19 255 7 7 0 1 11 0 15 V16 255 8 241 0 ?16 0 17 6 0
 0 1 17 255 16 0 18 16 16 0 19 8 0 0 +16 17 203 0 ?20 8 21 22 0 0 1 17 20 0 23 2
0 20 0 24 17 0 0 +16 21 197 0 ?25 17 26 27 0 0 1 31 22 206 0 17 27 14 0 -0 0 0 0
 0 -1 -1 0 0 .0035 31 27 200 0 21 28 22 0 +0 0 -.001 0 0 -1 -1 0 0 .0035 31 14 2
29 0 29 22 6 0 +0 0 -5e-4 0 0 -1 -1 0 0 .004 16 29 225 0 ?30 31 0 14 0 0 1 17 30
 0 32 30 30 0 33 29 0 0 +16 31 127 0 ?34 35 29 36 0 0 1 17 34 0 37 34 34 0 38 31
 0 0 +16 35 79 0 ?39 40 31 41 0 0 1 31 36 149 0 31 0 41 0 +0 0 -.001 0 0 -1 -1 0
 0 .002 31 41 106 0 35 36 42 0 +3469446951953615e-33 0 0 0 0 -1 -1 0 0 .0015 31
 42 5 0 40 41 43 0 +434169984523723e-32 0 .00731373904088889 0 0 1 1 0 0 .0015 1
6 40 4 0 ?44 45 35 42 0 0 1 31 43 40 0 45 42 46 0 +.00237931034482759 0 .0102488
2751518774 .978362824766283 0 .206896551724138 .206896551724138 0 -.978362824766
283 .0015 16 45 37 0 ?47 48 40 43 0 0 1 31 46 165 0 48 43 28 0 +0 0 -.017 0 0 -1
 -1 0 0 .00121388331075444 16 48 162 0 ?49 26 45 46 0 0 1 31 28 171 0 26 46 27 0
 -0 0 -.002000000000000405 0 0 -1 -1 0 0 .002 16 26 168 0 ?50 21 48 28 0 0 1 17
 50 0 51 50 50 0 52 26 0 0 +15 255 51 169 0 50 53 37 17 52 0 54 52 52 0 50 26 0
 0 -15 54 181 0 52 55 56 14 255 55 180 57 ?58 59 54 4 60 +0 0 58 59 15 15 56 182
 0 61 55 0 17 61 0 56 61 61 0 49 48 0 0 -17 49 0 62 49 49 0 61 48 0 0 +15 62 163
 0 49 59 0 14 59 138 63 ?55 53 62 4 64 +0 0 55 53 15 81 255 1 63 464 65 59 66 0
 57 67 68 14 53 133 67 ?59 69 51 4 70 -0 0 59 69 15 50 255 64 148 0 59 0 70 0 +0
 0 -.017 0 0 -1 -1 0 0 13 15 8 0 0 0 0 0 0 7 10 14 10 124 71 ?72 0 73 4 74 +0 0
 72 0 15 81 1 71 466 65 10 75 0 67 76 77 14 72 44 76 ?78 10 18 4 79 +0 0 78 10 1
5 15 73 198 0 25 10 80 50 74 105 0 10 70 81 0 +0 0 -.001 0 0 -1 -1 0 0 51 255 70
 146 0 53 64 74 0 -0 0 -.017 0 0 1 .002 1 0 0 50 81 104 0 69 74 82 0 +0 0 0 0 0
 -1 -1 0 0 14 69 86 83 ?53 84 23 4 81 -0 0 53 84 15 51 82 28 0 84 81 85 0 -43416
9984523723e-32 0 .00731373904088889 -1192622389734054e-31 0 -1 .0015 -1 0 119262
2389734054e-31 14 84 25 86 ?69 78 87 4 82 -0 0 69 78 15 54 255 85 41 0 78 82 79
 0 +.003 0 .00731373904088889 0 1 0 .003 .0015 0 0 1 14 78 34 88 ?84 72 89 4 85
 +0 0 84 72 15 54 79 51 0 72 85 60 0 +260208521396521e-32 0 .0215 0 -1 0 .0115 .
0015 0 0 -1 52 255 60 187 0 55 79 90 0 +0 0 -.017 0 0 1 .00121388331075444 .0523
359562429414 .998629534754574 1 0 0 52 90 228 0 91 60 13 0 +0 0 -.001 0 0 1 .003
5 .707106781186543 .707106781186553 1 0 0 14 91 219 92 ?12 58 32 4 90 +0 0 12 58
 15 52 13 227 0 58 90 5 0 +0 0 -5e-4 0 0 -1 .004 .707106781186543 .7071067811865
53 -1 0 0 14 58 214 93 ?91 55 94 4 13 +0 0 91 55 15 81 1 93 472 65 58 95 0 92 96
 97 15 94 215 0 24 58 98 17 24 0 94 24 24 0 20 17 0 0 -15 98 216 0 33 58 0 17 33
 0 98 33 33 0 30 29 0 0 -80 255 1 65 99 100 9000 1 1 1 1 1 1 1 1 0 FFFFTFTFFFFFF
F1 81 1 95 436 101 58 0 93 102 103 104 81 1 92 471 65 91 103 0 88 93 105 81 1 96
 473 65 12 106 0 93 0 107 82 255 1 97 669319294 14 12 251 96 ?0 91 108 4 5 +0 0
 0 91 15 81 1 106 438 101 12 0 96 103 0 109 82 1 107 923467904 80 1 101 0 110 80
01 0 0 0 0 3 5 0 0 0 FFFFTFTFFFFFFF2 81 1 103 437 101 91 0 92 95 106 111 83 255
 3 109 .792156862745098 .819607843137255 .933333333333333 83 3 111 .792156862745
098 .819607843137255 .933333333333333 79 255 15 110 SDL/TYSA_COLOUR15 108 252 0
 19 12 0 17 19 0 108 19 19 0 16 8 0 0 -81 1 88 470 65 78 112 0 86 92 113 82 1 10
5 668532862 81 1 112 430 101 78 0 88 114 115 116 81 1 86 469 65 84 115 0 83 88 1
17 82 1 113 1382023279 81 1 115 431 101 84 0 86 112 118 119 81 1 83 468 65 69 11
8 0 76 86 120 82 1 117 1380778095 81 1 118 432 101 69 0 83 115 121 122 81 1 76 4
67 65 72 114 0 71 83 123 82 1 120 2042232958 81 1 114 429 101 72 0 76 75 112 124
 82 1 123 1383137408 81 1 75 428 101 10 0 71 0 114 125 83 3 124 .792156862745098
 .819607843137255 .933333333333333 83 3 125 .792156862745098 .819607843137255 .9
33333333333333 81 1 121 433 101 53 0 67 118 66 126 83 3 122 .792156862745098 .81
9607843137255 .933333333333333 81 1 67 465 65 53 121 0 63 71 127 81 1 66 434 101
 59 0 63 121 102 128 83 3 126 .792156862745098 .819607843137255 .933333333333333
 81 1 102 435 101 55 0 57 66 95 129 83 3 128 .792156862745098 .819607843137255 .
933333333333333 81 1 57 463 65 55 102 0 0 63 130 83 3 129 .792156862745098 .8196
07843137255 .933333333333333 82 1 130 -13434759 82 1 127 -1547370375 83 3 119 .7
92156862745098 .819607843137255 .933333333333333 83 3 116 .792156862745098 .8196
07843137255 .933333333333333 83 3 104 .792156862745098 .819607843137255 .9333333
33333333 79 14 100 SWEntUnchanged15 32 220 0 30 91 131 15 131 221 0 132 91 0 17
 132 0 131 132 132 0 25 21 0 0 -17 25 0 73 25 25 0 132 21 0 0 +15 89 35 0 44 78
 133 17 44 0 89 44 44 0 134 40 0 0 +15 133 36 0 135 78 0 17 135 0 133 135 135 0
 47 45 0 0 -17 47 0 136 47 47 0 135 45 0 0 +15 136 45 0 47 72 0 17 134 0 87 134
 134 0 44 40 0 0 -15 87 24 0 134 84 137 15 137 26 0 138 84 0 17 138 0 137 138 13
8 0 39 35 0 0 -17 39 0 139 39 39 0 138 35 0 0 +15 139 89 0 39 69 0 15 23 204 0 2
0 69 139 15 80 121 0 38 10 0 17 38 0 80 38 38 0 34 31 0 0 -15 18 242 0 16 72 136
 82 1 77 -1544945538 82 1 68 -1549336455 15 37 137 0 34 53 0 19 11 30 0 1 0 7 4
 S74 4 CI16 index_map_offset0 0 1 dCCZ20 9 2 0 0 96 106 0 0 0 0 0 0 0 0 0 0 0 0
 0 0 0 0 0 0 1 0 
