2200 0 1 0           
15 SolidWorks 2013 12 ACIS 22.0 NT 24 Wed Apr 19 17:47:42 2023 
1 9.9999999999999995e-007 1e-010 
-0 body $1 -1 -1 $-1 $2 $-1 $-1 F #
-1 name_attrib-gen-attrib $-1 -1 $-1 $-1 $0 2 1 1 1 1 1 1 1 1 1 1 1 1 1 0 1 1 1 @6 Gancho #
-2 lump $3 -1 -1 $-1 $-1 $4 $0 F #
-3 rgb_color-st-attrib $-1 -1 $-1 $-1 $2 2 1 2 1 1 1 1 1 1 1 1 1 1 1 0 1 1 1 0.792156862745098 0.81960784313725488 0.93333333333333335 #
-4 shell $-1 -1 -1 $-1 $-1 $-1 $5 $-1 $2 F #
-5 face $6 -1 -1 $-1 $7 $8 $4 $-1 $9 forward single F T 0 3.1415926535897931 -1.5707963267948966 -0.2084018065917469 #
-6 integer_attrib-name_attrib-gen-attrib $-1 -1 $-1 $-1 $5 2 1 2 1 1 1 1 1 1 1 1 1 1 1 0 1 1 1 @7 Fillet1 0 #
-7 face $10 -1 -1 $-1 $11 $12 $4 $-1 $13 forward single F T -1.2244236203478475e-016 3.1415926535897931 0.20840180659174729 4.7314805939954532 #
-8 loop $-1 -1 -1 $-1 $-1 $14 $5 F unknown #
-9 torus-surface $-1 -1 -1 $-1 3.0000000000000009 0 7.3137390408888905 0 1 0 2.9999999999999964 1.5000000000000002 0 0 1 forward_v I I I I #
-10 integer_attrib-name_attrib-gen-attrib $-1 -1 $-1 $-1 $7 2 1 2 1 1 1 1 1 1 1 1 1 1 1 0 1 1 1 @7 Fillet1 0 #
-11 face $15 -1 -1 $-1 $16 $17 $4 $-1 $18 forward single F T -1.5707963267948966 0.061921347798432044 -0.042829734187670575 3.184422387777464 #
-12 loop $-1 -1 -1 $-1 $-1 $19 $7 F unknown #
-13 torus-surface $-1 -1 -1 $-1 2.6020852139652106e-015 0 21.499999999999996 -0 -1 -0 11.499999999999998 1.5000000000000002 0 0 -1 forward_v I I I I #
-14 coedge $-1 -1 -1 $-1 $20 $21 $22 $23 forward $8 $-1 #
-15 integer_attrib-name_attrib-gen-attrib $-1 -1 $-1 $-1 $11 2 1 2 1 1 1 1 1 1 1 1 1 1 1 0 1 1 1 @7 Fillet1 0 #
-16 face $24 -1 -1 $-1 $25 $26 $4 $-1 $27 forward single F T 0 0.20203050891044383 0 3.1415926535897931 #
-17 loop $-1 -1 -1 $-1 $-1 $28 $11 F unknown #
-18 sphere-surface $-1 -1 -1 $-1 -11.49790424782382 0 21.280459780735193 1.5 1 0 0 0 0 1 forward_v I I I I #
-19 coedge $-1 -1 -1 $-1 $29 $30 $31 $32 forward $12 $-1 #
-20 coedge $-1 -1 -1 $-1 $33 $14 $34 $35 forward $8 $-1 #
-21 coedge $-1 -1 -1 $-1 $14 $33 $36 $37 reversed $8 $-1 #
-22 coedge $-1 -1 -1 $-1 $38 $39 $14 $23 reversed $40 $-1 #
-23 edge $-1 -1 -1 $-1 $41 1.2246467991473535e-016 $42 3.1415926535897931 $14 $43 forward @7 unknown F #
-24 integer_attrib-name_attrib-gen-attrib $-1 -1 $-1 $-1 $16 2 1 2 1 1 1 1 1 1 1 1 1 1 1 0 1 1 1 @7 Fillet1 0 #
-25 face $44 -1 -1 $-1 $45 $46 $4 $-1 $47 forward single F T -0.17677669529663462 0 0 3.1415926535897931 #
-26 loop $-1 -1 -1 $-1 $-1 $48 $16 F unknown #
-27 cone-surface $-1 -1 -1 $-1 0 0 -1 0 0 1 3.499999999999996 0 0 1 I I 0.70710678118654269 0.70710678118655235 3.499999999999996 forward I I I I #
-28 coedge $-1 -1 -1 $-1 $49 $50 $51 $52 reversed $17 $-1 #
-29 coedge $-1 -1 -1 $-1 $53 $19 $54 $55 forward $12 $-1 #
-30 coedge $-1 -1 -1 $-1 $19 $53 $56 $57 reversed $12 $-1 #
-31 coedge $-1 -1 -1 $-1 $34 $36 $19 $32 reversed $58 $-1 #
-32 edge $-1 -1 -1 $-1 $59 -3.1415926535897931 $60 0 $19 $61 forward @7 unknown F #
-33 coedge $-1 -1 -1 $-1 $21 $20 $62 $63 reversed $8 $-1 #
-34 coedge $-1 -1 -1 $-1 $64 $31 $20 $35 reversed $58 $-1 #
-35 edge $-1 -1 -1 $-1 $42 -1.5707963267948966 $59 -0.20840180659174717 $20 $65 forward @7 unknown F #
-36 coedge $-1 -1 -1 $-1 $31 $64 $21 $37 forward $58 $-1 #
-37 edge $-1 -1 -1 $-1 $41 -1.5707963267948966 $60 -0.2084018065917469 $36 $66 forward @7 unknown F #
-38 coedge $-1 -1 -1 $-1 $67 $22 $68 $69 forward $40 $-1 #
-39 coedge $-1 -1 -1 $-1 $22 $67 $70 $71 reversed $40 $-1 #
-40 loop $-1 -1 -1 $-1 $-1 $22 $72 F unknown #
-41 vertex $-1 -1 -1 $-1 $37 $73 #
-42 vertex $-1 -1 -1 $-1 $35 $74 #
-43 ellipse-curve $-1 -1 -1 $-1 4.3416998452372305e-015 0 7.3137390408888905 0 0 1 1.5000000000000002 0 0 1 I I #
-44 integer_attrib-name_attrib-gen-attrib $-1 -1 $-1 $-1 $25 2 1 2 1 1 1 1 1 1 1 1 1 1 1 0 1 1 1 @7 Fillet1 0 #
-45 face $75 -1 -1 $-1 $76 $77 $4 $-1 $78 forward single F T 0 12.373994317981829 0 3.1415926535897931 #
-46 loop $-1 -1 -1 $-1 $-1 $79 $25 F unknown #
-47 cone-surface $-1 -1 -1 $-1 0 0 -0.499999999999997 -0 -0 -1 -4 0 0 1 I I 0.70710678118654269 0.70710678118655235 4 forward I I I I #
-48 coedge $-1 -1 -1 $-1 $80 $81 $82 $83 reversed $26 $-1 #
-49 coedge $-1 -1 -1 $-1 $50 $28 $84 $85 forward $17 $-1 #
-50 coedge $-1 -1 -1 $-1 $28 $49 $86 $87 reversed $17 $-1 #
-51 coedge $-1 -1 -1 $-1 $88 $84 $28 $52 forward $89 $-1 #
-52 edge $-1 -1 -1 $-1 $90 0 $91 1.5898879404056601 $51 $92 forward @7 unknown F #
-53 coedge $-1 -1 -1 $-1 $30 $29 $88 $93 forward $12 $-1 #
-54 coedge $-1 -1 -1 $-1 $62 $86 $29 $55 reversed $94 $-1 #
-55 edge $-1 -1 -1 $-1 $60 0.20840180659174734 $95 4.7314805939954523 $29 $96 forward @7 unknown F #
-56 coedge $-1 -1 -1 $-1 $86 $62 $30 $57 forward $94 $-1 #
-57 edge $-1 -1 -1 $-1 $59 0.2084018065917474 $91 4.7314805939954523 $56 $97 forward @7 unknown F #
-58 loop $-1 -1 -1 $-1 $-1 $34 $98 F unknown #
-59 vertex $-1 -1 -1 $-1 $35 $99 #
-60 vertex $-1 -1 -1 $-1 $37 $100 #
-61 ellipse-curve $-1 -1 -1 $-1 2.3793103448275881 0 10.248827515187738 0.97836282476628333 0 0.20689655172413779 0.31034482758620674 0 -1.4675442371494245 1 I I #
-62 coedge $-1 -1 -1 $-1 $56 $54 $33 $63 forward $94 $-1 #
-63 edge $-1 -1 -1 $-1 $60 0 $59 3.1415926535897931 $62 $101 forward @7 unknown F #
-64 coedge $-1 -1 -1 $-1 $36 $34 $102 $103 forward $58 $-1 #
-65 ellipse-curve $-1 -1 -1 $-1 3.0000000000000009 0 7.3137390408888905 0 1 0 0 0 4.4999999999999973 1 I I #
-66 ellipse-curve $-1 -1 -1 $-1 3.0000000000000009 -1.8369701987210302e-016 7.3137390408888905 0 1 0 0 0 1.4999999999999962 1 I I #
-67 coedge $-1 -1 -1 $-1 $39 $38 $104 $105 reversed $40 $-1 #
-68 coedge $-1 -1 -1 $-1 $102 $106 $38 $69 reversed $107 $-1 #
-69 edge $-1 -1 -1 $-1 $41 -0 $108 0.0073137390408888909 $38 $109 forward @7 unknown F #
-70 coedge $-1 -1 -1 $-1 $106 $102 $39 $71 forward $107 $-1 #
-71 edge $-1 -1 -1 $-1 $42 -0 $110 0.0073137390408888909 $70 $111 forward @7 unknown F #
-72 face $112 -1 -1 $-1 $113 $40 $4 $-1 $114 forward single F T -1.1926223897340549e-016 4.8758260272592597 0 3.1415926535897931 #
-73 point $-1 -1 -1 $-1 1.5000000000000047 1.8369701987210307e-016 7.3137390408888905 #
-74 point $-1 -1 -1 $-1 -1.499999999999996 0 7.3137390408888905 #
-75 integer_attrib-name_attrib-gen-attrib $-1 -1 $-1 $-1 $45 2 1 2 1 1 1 1 1 1 1 1 1 1 1 0 1 1 1 @7 Fillet1 0 #
-76 face $115 -1 -1 $-1 $72 $116 $4 $-1 $117 forward single F T 7.4999999999997975 8 0 3.1415926535897931 #
-77 loop $-1 -1 -1 $-1 $-1 $118 $45 F unknown #
-78 cone-surface $-1 -1 -1 $-1 0 0 -17 0 0 1 1.2138833107544398 0 0 1 I I 0.052335956242941399 0.99862953475457406 1.2138833107544398 forward I I I I #
-79 coedge $-1 -1 -1 $-1 $119 $120 $121 $122 reversed $46 $-1 #
-80 coedge $-1 -1 -1 $-1 $123 $48 $124 $125 forward $26 $-1 #
-81 coedge $-1 -1 -1 $-1 $48 $123 $126 $127 reversed $26 $-1 #
-82 coedge $-1 -1 -1 $-1 $128 $128 $48 $83 forward $129 $-1 #
-83 edge $-1 -1 -1 $-1 $130 1.3121215705150208e-016 $131 3.1415926535897931 $82 $132 forward @7 unknown F #
-84 coedge $-1 -1 -1 $-1 $51 $88 $49 $85 reversed $89 $-1 #
-85 edge $-1 -1 -1 $-1 $90 -1.5707963267948966 $95 -0.019091613610761365 $49 $133 forward @7 unknown F #
-86 coedge $-1 -1 -1 $-1 $54 $56 $50 $87 forward $94 $-1 #
-87 edge $-1 -1 -1 $-1 $91 -3.1415926535897931 $95 -1.2244236203478451e-016 $86 $134 forward @7 unknown F #
-88 coedge $-1 -1 -1 $-1 $84 $51 $53 $93 reversed $89 $-1 #
-89 loop $-1 -1 -1 $-1 $-1 $84 $135 F unknown #
-90 vertex $-1 -1 -1 $-1 $85 $136 #
-91 vertex $-1 -1 -1 $-1 $57 $137 #
-92 ellipse-curve $-1 -1 -1 $-1 -11.49790424782382 0 21.280459780735193 0 -1 0 0 0 -1.5000000000000013 1 I I #
-93 edge $-1 -1 -1 $-1 $95 -1.2244236203478451e-016 $91 3.1415926535897931 $53 $138 forward @7 unknown F #
-94 loop $-1 -1 -1 $-1 $-1 $54 $139 F unknown #
-95 vertex $-1 -1 -1 $-1 $55 $140 #
-96 ellipse-curve $-1 -1 -1 $-1 2.6020852139652106e-015 0 21.499999999999996 -0 -1 -0 0 0 -12.999999999999998 1 I I #
-97 ellipse-curve $-1 -1 -1 $-1 2.6020852139652106e-015 1.8369701987210302e-016 21.499999999999996 -0 -1 -0 0 0 -9.9999999999999982 1 I I #
-98 face $141 -1 -1 $-1 $142 $58 $4 $-1 $143 forward single F T -3.1415926535897931 0 -1.5707963267948966 -0.2084018065917469 #
-99 point $-1 -1 -1 $-1 2.0689655172413817 1.8369701987210302e-016 11.716371752337164 #
-100 point $-1 -1 -1 $-1 2.6896551724137949 0 8.7812832780383143 #
-101 ellipse-curve $-1 -1 -1 $-1 2.3793103448275881 0 10.248827515187738 0.97836282476628333 0 0.20689655172413779 0.31034482758620674 0 -1.4675442371494245 1 I I #
-102 coedge $-1 -1 -1 $-1 $70 $68 $64 $103 reversed $107 $-1 #
-103 edge $-1 -1 -1 $-1 $42 -3.1415926535897931 $41 1.2246467991473535e-016 $64 $144 forward @7 unknown F #
-104 coedge $-1 -1 -1 $-1 $145 $145 $67 $105 forward $146 $-1 #
-105 edge $-1 -1 -1 $-1 $110 0 $108 3.1415926535897931 $104 $147 forward @7 unknown F #
-106 coedge $-1 -1 -1 $-1 $68 $70 $145 $148 reversed $107 $-1 #
-107 loop $-1 -1 -1 $-1 $-1 $68 $142 F unknown #
-108 vertex $-1 -1 -1 $-1 $69 $149 #
-109 straight-curve $-1 -1 -1 $-1 1.5000000000000047 1.8369701987210302e-016 7.3137390408888905 -1.1926223897340549e-013 -0 -1000 I I #
-110 vertex $-1 -1 -1 $-1 $148 $150 #
-111 straight-curve $-1 -1 -1 $-1 -1.499999999999996 0 7.3137390408888905 -1.1926223897340549e-013 -0 -1000 I I #
-112 integer_attrib-name_attrib-gen-attrib $-1 -1 $-1 $-1 $72 2 1 2 1 1 1 1 1 1 1 1 1 1 1 0 1 1 1 @7 Fillet1 0 #
-113 face $151 -1 -1 $-1 $139 $129 $4 $-1 $152 forward single F F #
-114 cone-surface $-1 -1 -1 $-1 4.3416998452372305e-015 0 7.3137390408888905 -1.1926223897340549e-016 -0 -1 -1.5000000000000002 0 0 1 I I 0 1 1.5000000000000002 forward I I I I #
-115 integer_attrib-name_attrib-gen-attrib $-1 -1 $-1 $-1 $76 2 1 2 1 1 1 1 1 1 1 1 1 1 1 0 1 1 1 @7 Fillet1 0 #
-116 loop $-1 -1 -1 $-1 $-1 $153 $76 F unknown #
-117 cone-surface $-1 -1 -1 $-1 0 0 -17 0 0 1 2 0 0 1 I I 0 1 2 forward I I I I #
-118 coedge $-1 -1 -1 $-1 $154 $155 $156 $157 reversed $77 $-1 #
-119 coedge $-1 -1 -1 $-1 $158 $79 $159 $160 forward $46 $-1 #
-120 coedge $-1 -1 -1 $-1 $79 $158 $161 $162 reversed $46 $-1 #
-121 coedge $-1 -1 -1 $-1 $163 $163 $79 $122 forward $164 $-1 #
-122 edge $-1 -1 -1 $-1 $165 -3.1415926535897931 $166 0 $121 $167 forward @7 unknown F #
-123 coedge $-1 -1 -1 $-1 $81 $80 $158 $168 forward $26 $-1 #
-124 coedge $-1 -1 -1 $-1 $169 $170 $80 $125 reversed $171 $-1 #
-125 edge $-1 -1 -1 $-1 $130 2.6512257811776122e-036 $172 0.00070710678118655261 $80 $173 forward @7 unknown F #
-126 coedge $-1 -1 -1 $-1 $170 $169 $81 $127 forward $171 $-1 #
-127 edge $-1 -1 -1 $-1 $131 0 $174 0.00070710678118655261 $126 $175 forward @7 unknown F #
-128 coedge $-1 -1 -1 $-1 $82 $82 $169 $176 forward $129 $-1 #
-129 loop $-1 -1 -1 $-1 $177 $128 $113 F unknown #
-130 vertex $-1 -1 -1 $-1 $125 $178 #
-131 vertex $-1 -1 -1 $-1 $83 $179 #
-132 ellipse-curve $-1 -1 -1 $-1 0 0 -1 0 0 -1 -3.499999999999996 0 0 1 I I #
-133 ellipse-curve $-1 -1 -1 $-1 -11.49790424782382 0 21.280459780735193 1.2246467991473532e-016 1 0 -1.4999999999999996 1.8369701987210299e-016 0 1 I I #
-134 ellipse-curve $-1 -1 -1 $-1 -11.49790424782382 0 21.280459780735193 -0.019090453849113176 0 0.99981776068033268 -1.4997266410204986 0 -0.028635680773669153 1 I I #
-135 face $180 -1 -1 $-1 $-1 $89 $4 $-1 $181 forward single F T -1.5707963267948966 0.061921347795441964 -3.184422387774474 0.042829734184680494 #
-136 point $-1 -1 -1 $-1 -11.49790424782382 0 19.780459780735193 #
-137 point $-1 -1 -1 $-1 -9.9981776068033223 0 21.309095461508864 #
-138 ellipse-curve $-1 -1 -1 $-1 -11.49790424782382 0 21.280459780735193 -0.019090453849113176 0 0.99981776068033268 -1.4997266410204986 0 -0.028635680773669153 1 I I #
-139 face $182 -1 -1 $-1 $98 $94 $4 $-1 $183 forward single F T -3.1415926535897931 0 -6.0747835005878388 -1.5517047131841335 #
-140 point $-1 -1 -1 $-1 -12.997630888844318 1.8366354305217659e-016 21.251824099961524 #
-141 integer_attrib-name_attrib-gen-attrib $-1 -1 $-1 $-1 $98 2 1 2 1 1 1 1 1 1 1 1 1 1 1 0 1 1 1 @7 Fillet1 0 #
-142 face $184 -1 -1 $-1 $185 $107 $4 $-1 $186 forward single F T -1.1926223897340549e-016 4.8758260272592597 -3.1415926535897931 0 #
-143 torus-surface $-1 -1 -1 $-1 3.0000000000000009 0 7.3137390408888905 0 1 0 2.9999999999999964 1.5000000000000002 0 0 1 forward_v I I I I #
-144 ellipse-curve $-1 -1 -1 $-1 4.3416998452372305e-015 0 7.3137390408888905 0 0 1 1.5000000000000002 0 0 1 I I #
-145 coedge $-1 -1 -1 $-1 $104 $104 $106 $148 forward $146 $-1 #
-146 loop $-1 -1 -1 $-1 $-1 $104 $185 F unknown #
-147 ellipse-curve $-1 -1 -1 $-1 0 0 0 0 0 -1 -1.5000000000000002 0 0 1 I I #
-148 edge $-1 -1 -1 $-1 $108 -3.1415926535897931 $110 0 $145 $187 forward @7 unknown F #
-149 point $-1 -1 -1 $-1 1.5000000000000038 1.8369701987210302e-016 0 #
-150 point $-1 -1 -1 $-1 -1.4999999999999967 0 0 #
-151 integer_attrib-name_attrib-gen-attrib $-1 -1 $-1 $-1 $113 2 1 2 1 1 1 1 1 1 1 1 1 1 1 0 1 1 1 @7 Fillet1 0 #
-152 plane-surface $-1 -1 -1 $-1 0 0 -1 0 0 -1 -1000 0 0 forward_v I I I I #
-153 coedge $-1 -1 -1 $-1 $188 $189 $190 $191 forward $116 $-1 #
-154 coedge $-1 -1 -1 $-1 $190 $118 $192 $193 forward $77 $-1 #
-155 coedge $-1 -1 -1 $-1 $118 $190 $194 $195 reversed $77 $-1 #
-156 coedge $-1 -1 -1 $-1 $196 $196 $118 $157 forward $197 $-1 #
-157 edge $-1 -1 -1 $-1 $198 1.6211903872796232e-016 $199 3.1415926535897931 $156 $200 forward @7 unknown F #
-158 coedge $-1 -1 -1 $-1 $120 $119 $123 $168 reversed $46 $-1 #
-159 coedge $-1 -1 -1 $-1 $201 $202 $119 $160 reversed $203 $-1 #
-160 edge $-1 -1 -1 $-1 $165 -0.0007071067811865383 $174 0 $119 $204 forward @7 unknown F #
-161 coedge $-1 -1 -1 $-1 $202 $201 $120 $162 forward $203 $-1 #
-162 edge $-1 -1 -1 $-1 $166 -0.0007071067811865383 $172 0 $161 $205 forward @7 unknown F #
-163 coedge $-1 -1 -1 $-1 $121 $121 $201 $206 forward $164 $-1 #
-164 loop $-1 -1 -1 $-1 $146 $163 $185 F unknown #
-165 vertex $-1 -1 -1 $-1 $160 $207 #
-166 vertex $-1 -1 -1 $-1 $122 $208 #
-167 ellipse-curve $-1 -1 -1 $-1 0 0 0 0 0 1 -3.5000000000000102 0 0 1 I I #
-168 edge $-1 -1 -1 $-1 $172 0 $174 3.1415926535897931 $123 $209 forward @7 unknown F #
-169 coedge $-1 -1 -1 $-1 $126 $124 $128 $176 reversed $171 $-1 #
-170 coedge $-1 -1 -1 $-1 $124 $126 $202 $210 forward $171 $-1 #
-171 loop $-1 -1 -1 $-1 $-1 $124 $211 F unknown #
-172 vertex $-1 -1 -1 $-1 $125 $212 #
-173 straight-curve $-1 -1 -1 $-1 -3.499999999999996 4.2862637970157317e-016 -1 -707.10678118654266 8.6595605623548736e-014 707.10678118655244 I I #
-174 vertex $-1 -1 -1 $-1 $127 $213 #
-175 straight-curve $-1 -1 -1 $-1 3.499999999999996 0 -1 707.10678118654266 0 707.10678118655244 I I #
-176 edge $-1 -1 -1 $-1 $131 -3.1415926535897931 $130 1.3121215705150208e-016 $128 $214 forward @7 unknown F #
-177 loop $-1 -1 -1 $-1 $-1 $215 $113 F unknown #
-178 point $-1 -1 -1 $-1 -3.499999999999996 4.5924254968025671e-016 -1 #
-179 point $-1 -1 -1 $-1 3.499999999999996 0 -1 #
-180 integer_attrib-name_attrib-gen-attrib $-1 -1 $-1 $-1 $135 2 1 2 1 1 1 1 1 1 1 1 1 1 1 0 1 1 1 @7 Fillet1 0 #
-181 sphere-surface $-1 -1 -1 $-1 -11.49790424782382 0 21.280459780735193 1.5 1 0 0 0 0 1 forward_v I I I I #
-182 integer_attrib-name_attrib-gen-attrib $-1 -1 $-1 $-1 $139 2 1 2 1 1 1 1 1 1 1 1 1 1 1 0 1 1 1 @7 Fillet1 0 #
-183 torus-surface $-1 -1 -1 $-1 2.6020852139652106e-015 0 21.499999999999996 -0 -1 -0 11.499999999999998 1.5000000000000002 0 0 -1 forward_v I I I I #
-184 integer_attrib-name_attrib-gen-attrib $-1 -1 $-1 $-1 $142 2 1 2 1 1 1 1 1 1 1 1 1 1 1 0 1 1 1 @7 Fillet1 0 #
-185 face $216 -1 -1 $-1 $217 $164 $4 $-1 $218 reversed single F F #
-186 cone-surface $-1 -1 -1 $-1 4.3416998452372305e-015 0 7.3137390408888905 -1.1926223897340549e-016 -0 -1 -1.5000000000000002 0 0 1 I I 0 1 1.5000000000000002 forward I I I I #
-187 ellipse-curve $-1 -1 -1 $-1 0 0 0 0 0 -1 -1.5000000000000002 0 0 1 I I #
-188 coedge $-1 -1 -1 $-1 $219 $153 $220 $221 forward $116 $-1 #
-189 coedge $-1 -1 -1 $-1 $153 $219 $222 $223 reversed $116 $-1 #
-190 coedge $-1 -1 -1 $-1 $155 $154 $153 $191 reversed $77 $-1 #
-191 edge $-1 -1 -1 $-1 $224 -3.1415926535897931 $225 -1.224646799147353e-016 $153 $226 forward @7 unknown F #
-192 coedge $-1 -1 -1 $-1 $227 $228 $154 $193 reversed $229 $-1 #
-193 edge $-1 -1 -1 $-1 $198 3.0851684956531919e-037 $225 0.015020585189968409 $154 $230 forward @7 unknown F #
-194 coedge $-1 -1 -1 $-1 $228 $227 $155 $195 forward $229 $-1 #
-195 edge $-1 -1 -1 $-1 $199 0 $224 0.015020585189968409 $194 $231 forward @7 unknown F #
-196 coedge $-1 -1 -1 $-1 $156 $156 $227 $232 forward $197 $-1 #
-197 loop $-1 -1 -1 $-1 $-1 $196 $233 F unknown #
-198 vertex $-1 -1 -1 $-1 $193 $234 #
-199 vertex $-1 -1 -1 $-1 $157 $235 #
-200 ellipse-curve $-1 -1 -1 $-1 0 0 -17 0 0 -1 -1.2138833107544398 0 0 1 I I #
-201 coedge $-1 -1 -1 $-1 $161 $159 $163 $206 reversed $203 $-1 #
-202 coedge $-1 -1 -1 $-1 $159 $161 $170 $210 reversed $203 $-1 #
-203 loop $-1 -1 -1 $-1 $-1 $159 $236 F unknown #
-204 straight-curve $-1 -1 -1 $-1 4 4.8985871965894128e-016 -0.499999999999997 707.10678118654266 8.6595605623548736e-014 -707.10678118655244 I I #
-205 straight-curve $-1 -1 -1 $-1 -4 0 -0.499999999999997 -707.10678118654266 0 -707.10678118655244 I I #
-206 edge $-1 -1 -1 $-1 $166 0 $165 3.1415926535897931 $163 $237 forward @7 unknown F #
-207 point $-1 -1 -1 $-1 3.5000000000000102 4.5924254968025809e-016 0 #
-208 point $-1 -1 -1 $-1 -3.5000000000000102 0 0 #
-209 ellipse-curve $-1 -1 -1 $-1 0 0 -0.499999999999997 -0 -0 -1 -4 0 0 1 I I #
-210 edge $-1 -1 -1 $-1 $174 -3.1415926535897931 $172 0 $170 $238 forward @7 unknown F #
-211 face $239 -1 -1 $-1 $135 $171 $4 $-1 $240 forward single F T 0 0.20203050891044383 -3.1415926535897931 0 #
-212 point $-1 -1 -1 $-1 -4 0 -0.499999999999997 #
-213 point $-1 -1 -1 $-1 4 4.8985871965894128e-016 -0.499999999999997 #
-214 ellipse-curve $-1 -1 -1 $-1 0 0 -1 0 0 -1 -3.499999999999996 0 0 1 I I #
-215 coedge $-1 -1 -1 $-1 $241 $241 $242 $243 reversed $177 $-1 #
-216 integer_attrib-name_attrib-gen-attrib $-1 -1 $-1 $-1 $185 2 1 2 1 1 1 1 1 1 1 1 1 1 1 0 1 1 1 @7 Fillet1 0 #
-217 face $244 -1 -1 $-1 $233 $245 $4 $-1 $246 forward single F T 7.4999999999997975 8 -3.1415926535897931 0 #
-218 plane-surface $-1 -1 -1 $-1 0 0 0 0 0 -1 -1000 0 0 forward_v I I I I #
-219 coedge $-1 -1 -1 $-1 $189 $188 $241 $247 forward $116 $-1 #
-220 coedge $-1 -1 -1 $-1 $248 $242 $188 $221 reversed $245 $-1 #
-221 edge $-1 -1 -1 $-1 $225 0.014999999999999595 $249 0.016 $188 $250 forward @7 unknown F #
-222 coedge $-1 -1 -1 $-1 $242 $248 $189 $223 forward $245 $-1 #
-223 edge $-1 -1 -1 $-1 $224 0.014999999999999595 $251 0.016 $222 $252 forward @7 unknown F #
-224 vertex $-1 -1 -1 $-1 $195 $253 #
-225 vertex $-1 -1 -1 $-1 $193 $254 #
-226 ellipse-curve $-1 -1 -1 $-1 0 0 -2.0000000000004041 0 0 1 -2 0 0 1 I I #
-227 coedge $-1 -1 -1 $-1 $194 $192 $196 $232 reversed $229 $-1 #
-228 coedge $-1 -1 -1 $-1 $192 $194 $248 $255 reversed $229 $-1 #
-229 loop $-1 -1 -1 $-1 $-1 $192 $256 F unknown #
-230 straight-curve $-1 -1 -1 $-1 -1.2138833107544398 1.4865783110538166e-016 -17 -52.3359562429414 6.4093061293234121e-015 998.62953475457402 I I #
-231 straight-curve $-1 -1 -1 $-1 1.2138833107544398 0 -17 52.3359562429414 0 998.62953475457402 I I #
-232 edge $-1 -1 -1 $-1 $199 -3.1415926535897931 $198 1.6211903872796232e-016 $196 $257 forward @7 unknown F #
-233 face $258 -1 -1 $-1 $256 $197 $4 $-1 $259 forward single F F #
-234 point $-1 -1 -1 $-1 -1.2138833107544398 1.9679359546742615e-016 -17 #
-235 point $-1 -1 -1 $-1 1.2138833107544398 0 -17 #
-236 face $260 -1 -1 $-1 $211 $203 $4 $-1 $261 forward single F T -0.17677669529663462 0 -3.1415926535897931 0 #
-237 ellipse-curve $-1 -1 -1 $-1 0 0 0 0 0 1 -3.5000000000000102 0 0 1 I I #
-238 ellipse-curve $-1 -1 -1 $-1 0 0 -0.499999999999997 -0 -0 -1 -4 0 0 1 I I #
-239 integer_attrib-name_attrib-gen-attrib $-1 -1 $-1 $-1 $211 2 1 2 1 1 1 1 1 1 1 1 1 1 1 0 1 1 1 @7 Fillet1 0 #
-240 cone-surface $-1 -1 -1 $-1 0 0 -1 0 0 1 3.499999999999996 0 0 1 I I 0.70710678118654269 0.70710678118655235 3.499999999999996 forward I I I I #
-241 coedge $-1 -1 -1 $-1 $215 $215 $219 $247 reversed $177 $-1 #
-242 coedge $-1 -1 -1 $-1 $220 $222 $215 $243 forward $245 $-1 #
-243 edge $-1 -1 -1 $-1 $251 -3.1415926535897931 $249 1.224646799147353e-016 $242 $262 forward @7 unknown F #
-244 integer_attrib-name_attrib-gen-attrib $-1 -1 $-1 $-1 $217 2 1 2 1 1 1 1 1 1 1 1 1 1 1 0 1 1 1 @7 Fillet1 0 #
-245 loop $-1 -1 -1 $-1 $-1 $220 $217 F unknown #
-246 cone-surface $-1 -1 -1 $-1 0 0 -17 0 0 1 2 0 0 1 I I 0 1 2 forward I I I I #
-247 edge $-1 -1 -1 $-1 $249 1.224646799147353e-016 $251 3.1415926535897931 $219 $263 forward @7 unknown F #
-248 coedge $-1 -1 -1 $-1 $222 $220 $228 $255 forward $245 $-1 #
-249 vertex $-1 -1 -1 $-1 $221 $264 #
-250 straight-curve $-1 -1 -1 $-1 -2 2.4492935982947064e-016 -17 0 0 1000 I I #
-251 vertex $-1 -1 -1 $-1 $247 $265 #
-252 straight-curve $-1 -1 -1 $-1 2 0 -17 0 0 1000 I I #
-253 point $-1 -1 -1 $-1 2 0 -2.0000000000004041 #
-254 point $-1 -1 -1 $-1 -2 2.4492935982947064e-016 -2.0000000000004041 #
-255 edge $-1 -1 -1 $-1 $225 -1.224646799147353e-016 $224 3.1415926535897931 $248 $266 forward @7 unknown F #
-256 face $267 -1 -1 $-1 $236 $229 $4 $-1 $268 forward single F T 0 12.373994317981829 -3.1415926535897931 0 #
-257 ellipse-curve $-1 -1 -1 $-1 0 0 -17 0 0 -1 -1.2138833107544398 0 0 1 I I #
-258 integer_attrib-name_attrib-gen-attrib $-1 -1 $-1 $-1 $233 2 1 2 1 1 1 1 1 1 1 1 1 1 1 0 1 1 1 @7 Fillet1 0 #
-259 plane-surface $-1 -1 -1 $-1 0 0 -17 0 0 -1 -1000 0 0 forward_v I I I I #
-260 integer_attrib-name_attrib-gen-attrib $-1 -1 $-1 $-1 $236 2 1 2 1 1 1 1 1 1 1 1 1 1 1 0 1 1 1 @7 Fillet1 0 #
-261 cone-surface $-1 -1 -1 $-1 0 0 -0.499999999999997 -0 -0 -1 -4 0 0 1 I I 0.70710678118654269 0.70710678118655235 4 forward I I I I #
-262 ellipse-curve $-1 -1 -1 $-1 0 0 -1 0 0 -1 -2 0 0 1 I I #
-263 ellipse-curve $-1 -1 -1 $-1 0 0 -1 0 0 -1 -2 0 0 1 I I #
-264 point $-1 -1 -1 $-1 -2 2.4492935982947064e-016 -1 #
-265 point $-1 -1 -1 $-1 2 0 -1 #
-266 ellipse-curve $-1 -1 -1 $-1 0 0 -2.0000000000004041 0 0 1 -2 0 0 1 I I #
-267 integer_attrib-name_attrib-gen-attrib $-1 -1 $-1 $-1 $256 2 1 2 1 1 1 1 1 1 1 1 1 1 1 0 1 1 1 @7 Fillet1 0 #
-268 cone-surface $-1 -1 -1 $-1 0 0 -17 0 0 1 1.2138833107544398 0 0 1 I I 0.052335956242941399 0.99862953475457406 1.2138833107544398 forward I I I I #
End-of-ACIS-data 