**ABCDEFGHIJKLMNOPQRSTUVWXYZabcdefghijklmnopqrstuvwxyz**************************
**PARASOLID !"#$%&'()*+,-./:;<=>?@[\]^_`{|}~0123456789**************************
**PART1;
MC=AMD64;
MC_MODEL=Intel64 Family 6 Model 158 Stepping 9, GenuineIntel;
MC_ID=unknown;
OS=Windows_NT;
OS_RELEASE=unknown;
FRU=Parasolid Version 24.1, build 257,  2-12-2013;
APPL=SolidWorks 2013-2013086;
SITE=;
USER=unknown;
FORMAT=text;
GUISE=transmit;
KEY=Valde;
FILE=Valde.x_t;
DATE=Wed Apr 19 17:56:01 2023;
**PART2;
SCH=SCH_2401257_20000;
USFLD_SIZE=0;
**PART3;
**END_OF_HEADER*****************************************************************
T51 : TRANSMIT FILE created by modeller version 240125723 SCH_2401257_20000_1300
6189 0 10 255 1 5 2 3 0 0 0 0 0 1e3 1e-8 0 0 0 1 0 1 4 81 255 2 2 5 5 1 0 0 0 0
 0 0 70 11 CI9 list_type0 0 1 uI10 notransmit0 0 1 lCCCDCCDI12 finger_index0 0 1
 dI12 finger_block1012 0 CZ3 0 4 T1 0 0 1 20 1 6 6 11 255 4 3 0 1 7 8 1 9 0 0 0
 12 27 CCCCCCCCCCCCCCCCCCCCCCCA16 index_map_offset0 0 1 dA9 index_map82 0 A17 no
de_id_index_map82 0 A20 schema_embedding_map82 0 Z7 489 10 11 0 0 0 0 1e3 1e-8 4
 12 0 1 0 1 1 13 14 15 16 17 18 19 0 0 0 0 100 255 8 4 4 0 0 1 0 0 0 1 0 0 0 1 0
 0 0 1 0 ?11 9 1 0 1 12 20 1 0 4 0 0 12 12 208 21 22 0 0 0 0 1e3 1e-8 9 23 7 1 0
 1 1 24 25 26 0 27 28 0 0 0 0 0 100 20 2 9 0 0 1 0 0 0 1 0 0 0 1 0 0 0 1 0 ?81 1
 21 208 29 12 0 0 0 0 0 70 22 0 4 T12 0 0 3 20 1 30 30 13 255 24 41 0 12 0 31 0
 0 32 0 50 255 25 82 0 31 33 0 0 +0 0 0 0 -1 0 0 0 -1 31 255 26 86 0 28 34 0 0 +
0 0 0 0 -1 0 0 0 -1 .0375 19 255 27 45 0 12 32 0 35 V16 255 28 64 0 ?36 0 37 26
 0 0 12 17 255 36 0 38 36 36 0 39 28 0 0 +16 37 59 0 ?40 28 41 34 0 0 12 17 40 0
 42 40 40 0 43 37 0 0 +16 41 54 0 ?44 37 45 46 0 0 12 31 34 85 0 37 46 26 0 +0 .
11 0 0 -1 0 0 0 -1 .053 31 46 84 0 41 47 34 0 +0 .1102790613653648 0 0 -1 0 0 0
 -1 .0510195645038627 31 47 83 0 45 0 46 0 +0 .002 0 0 -1 0 0 0 -1 .035762060402
37945 16 45 49 0 ?48 41 0 47 0 0 12 17 48 0 49 48 48 0 50 45 0 0 +15 255 49 108
 0 48 51 52 17 50 0 53 50 50 0 48 45 0 0 -15 53 51 0 50 54 0 14 255 54 52 55 ?0
 51 53 24 56 +0 0 0 51 35 81 1 55 203 57 54 58 0 0 59 60 14 51 57 59 ?54 61 49 2
4 62 +0 0 54 61 35 50 56 78 0 54 0 62 0 +0 .002 0 0 1 0 0 0 1 13 35 44 0 0 0 0 0
 0 27 31 14 31 72 63 ?64 0 38 24 25 +0 0 64 0 35 81 1 63 205 57 31 65 0 59 66 67
 14 64 67 66 ?61 31 42 24 33 +0 0 61 31 35 15 38 111 0 36 31 0 81 1 66 206 57 64
 68 0 63 69 70 14 61 62 69 ?51 64 71 24 72 +0 0 51 64 35 15 42 110 0 40 64 73 52
 255 33 81 0 64 72 25 0 +0 0 0 0 1 0 .0375 .139530682682403 .990217748068667 0 0
 1 52 72 80 0 61 62 33 0 +0 .11 0 0 -1 0 .053 .990217748068667 .139530682682403
 0 0 -1 52 62 79 0 51 56 72 0 -0 .1102790613653648 0 0 1 0 .0510195645038627 .13
95306826824032 .990217748068667 0 0 1 15 73 66 0 39 64 0 17 39 0 73 39 39 0 36 2
8 0 0 -81 1 69 207 57 61 74 0 66 0 75 15 71 109 0 44 61 76 17 44 0 71 44 44 0 77
 41 0 0 +15 76 61 0 43 61 0 17 43 0 76 43 43 0 40 37 0 0 -17 77 0 52 77 77 0 44
 41 0 0 -15 52 56 0 77 51 0 80 255 1 57 78 79 9000 1 1 1 1 1 1 1 1 0 FFFFTFTFFFF
FFF1 81 1 74 132 80 61 0 69 68 81 82 82 255 1 75 -1902051224 80 1 80 0 83 8001 0
 0 0 0 3 5 0 0 0 FFFFTFTFFFFFFF2 81 1 68 131 80 64 0 66 65 74 84 81 1 81 133 80
 51 0 59 74 58 85 83 255 3 82 .792156862745098 .819607843137255 .933333333333333
 81 1 59 204 57 51 81 0 55 63 86 81 1 58 134 80 54 0 55 81 0 87 83 3 85 .7921568
62745098 .819607843137255 .933333333333333 83 3 87 .792156862745098 .81960784313
7255 .933333333333333 82 1 86 -1902641048 81 1 65 130 80 31 0 63 0 68 88 83 3 84
 .792156862745098 .819607843137255 .933333333333333 83 3 88 .792156862745098 .81
9607843137255 .933333333333333 79 255 15 83 SDL/TYSA_COLOUR79 14 79 SWEntUnchang
ed82 1 70 -1901461400 82 1 67 -1900871576 82 1 60 -1903230872 19 32 40 0 12 0 27
 24 S74 4 CI16 index_map_offset0 0 1 dCCZ20 30 3 0 0 69 58 21 0 0 0 0 0 0 0 0 0
 0 0 0 0 0 0 0 0 80 1 29 89 90 8017 0 0 0 0 0 0 0 0 0 TTTTTTTTTTTTTF3 79 13 90 S
DL/TYSA_NAME81 1 10 489 29 7 0 0 0 0 0 70 11 0 4 T7 0 0 3 20 1 91 91 13 13 82 0
 7 0 92 0 0 93 0 53 255 14 189 0 92 94 0 0 +0 .095996142755768 -.059088151966747
 .001 0 0 1 1 0 0 31 15 201 0 18 95 0 0 -0 .095996142755768 -.059088151966747 0
 -.0965481443031342 -.995328315598236 0 .995328315598236 -.0965481443031342 .001
 29 255 16 221 0 19 96 0 0 .0950008144401698 -.0589916038224438 19 17 28 0 7 93
 0 97 V16 18 159 0 ?98 0 99 15 0 0 7 18 255 19 179 0 100 0 101 16 ?7 17 100 0 10
2 103 104 19 98 18 0 105 -18 101 180 0 103 19 106 96 ?7 17 103 0 102 104 100 101
 107 99 0 108 -18 106 181 0 109 101 110 111 ?7 29 96 222 0 101 111 16 0 .0959163
995113156 -.0600849674035076 29 111 223 0 106 112 96 0 .0959163995113156 .060084
9674035076 29 112 224 0 110 113 111 .001 .095996142755768 -.059088151966747 18 1
10 182 0 104 106 114 112 ?7 29 113 225 0 114 115 112 0 .0960758860002204 -.05809
13365299864 18 114 183 0 116 110 117 113 ?7 29 115 226 0 117 118 113 -.001 .0959
96142755768 -.059088151966747 18 117 184 0 119 114 120 115 ?7 29 118 227 0 120 1
21 115 .001 .0959961427557679 .059088151966747 18 120 185 0 122 117 123 118 ?7 2
9 121 228 0 123 124 118 -.001 .0959961427557679 .059088151966747 18 123 186 0 12
5 120 126 121 ?7 29 124 229 0 127 128 121 0 .0950008144401697 .0589916038224438
 18 127 188 0 129 126 0 124 ?7 29 128 230 0 126 0 124 0 .0960758860002204 .05809
13365299864 18 126 187 0 130 123 127 128 ?7 17 130 0 131 132 133 126 134 135 0 1
36 +15 131 152 0 133 137 0 17 132 0 131 138 130 123 139 140 0 141 -17 133 0 131
 130 138 114 142 143 0 0 +17 134 0 144 145 136 114 130 135 0 133 -16 135 172 0 ?
130 146 143 147 0 0 7 17 136 0 144 134 148 126 149 150 0 139 -15 144 150 0 134 1
51 0 17 148 0 144 136 145 120 152 153 0 149 +17 149 0 154 155 156 120 136 150 0
 0 +16 150 176 0 ?149 157 140 158 0 0 7 17 139 0 159 160 141 126 132 140 0 156 +
15 159 156 0 141 161 0 17 160 0 159 141 139 127 156 162 0 0 +17 141 0 159 139 16
0 123 163 157 0 0 +16 140 177 0 ?139 150 162 164 0 0 7 17 156 0 154 149 155 126
 160 162 0 0 -15 154 154 0 149 165 0 17 155 0 154 156 149 127 166 167 0 160 +16
 162 178 0 ?160 140 0 168 0 0 7 31 168 220 0 162 0 164 0 -0 .0959961427557679 .0
59088151966747 1 0 0 0 0 -1 .001 31 164 219 0 140 168 158 0 +0 .0959961427557679
 .059088151966747 0 -.996815436760589 -.0797432444524102 0 .0797432444524102 -.9
96815436760589 .001 31 158 218 0 150 164 169 0 +0 .095996142755768 .059088151966
747 -1438692302772586e-29 -.99681543676059 -.0797432444523959 0 .079743244452395
9 -.99681543676059 .001 31 169 217 0 157 158 170 0 -0 .0959961427557679 .0590881
51966747 0 -.0965481443031411 .995328315598235 0 -.995328315598235 -.09654814430
31411 .001 16 157 175 0 ?141 171 150 169 0 0 7 31 170 216 0 171 169 172 0 --.001
 .100723076923077 -3469446951953615e-33 1 0 0 0 0 -1 .0592769230769231 16 171 17
4 0 ?138 143 157 170 0 0 7 31 172 215 0 143 170 147 0 -0 .095996142755768 -.0590
88151966747 1272693328930032e-29 -.99681543676059 .0797432444523959 0 -.07974324
44523959 -.99681543676059 .001 16 143 173 0 ?133 135 171 172 0 0 7 31 147 214 0
 135 172 173 0 +0 .100723076923077 -3469446951953615e-33 1 0 0 0 0 -1 .058276923
0769231 31 173 213 0 146 147 174 0 -0 .095996142755768 -.059088151966747 0 -.996
815436760589 .0797432444524091 0 -.0797432444524091 -.996815436760589 .001 16 14
6 171 0 ?145 153 135 173 0 0 7 31 174 212 0 153 173 175 0 +.001 .100723076923077
 -3469446951953615e-33 1 0 0 0 0 -1 .0592769230769231 16 153 170 0 ?148 167 146
 174 0 0 7 31 175 211 0 167 174 176 0 -0 .0959961427557679 .059088151966747 0 -.
0965481443031411 .995328315598235 0 -.995328315598235 -.0965481443031411 .001 16
 167 169 0 ?155 177 153 175 0 0 7 31 176 210 0 177 175 178 0 +0 .095996142755767
9 .059088151966747 -1 0 0 0 0 1 .001 16 177 168 0 ?179 180 167 176 0 0 7 31 178
 209 0 180 176 181 0 +0 .095996142755768 .059088151966747 1383359311491736e-29 -
.99681543676059 -.0797432444523959 0 .0797432444523959 -.99681543676059 .001 16
 180 167 0 ?125 182 177 178 0 0 7 31 181 208 0 182 178 183 0 -0 .100723076923077
 -3469446951953615e-33 1 0 0 0 0 -1 .0602769230769231 16 182 166 0 ?184 185 180
 181 0 0 7 31 183 207 0 185 181 186 0 -0 .095996142755768 -.059088151966747 0 -.
996815436760591 .0797432444523821 0 -.0797432444523821 -.996815436760591 .001 16
 185 165 0 ?187 188 182 183 0 0 7 31 186 206 0 188 183 189 0 +0 .095996142755768
 -.059088151966747 0 .0965481443031479 .995328315598234 0 -.995328315598235 .096
548144303148 .001 16 188 164 0 ?190 191 185 186 0 0 7 31 189 205 0 191 186 192 0
 +0 .095996142755768 -.059088151966747 1 0 0 0 0 -1 .001 16 191 163 0 ?105 193 1
88 189 0 0 7 31 192 204 0 193 189 194 0 -0 .095996142755768 -.059088151966747 -1
438692302772586e-29 -.99681543676059 .0797432444523959 0 -.0797432444523959 -.99
681543676059 .001 16 193 162 0 ?108 195 191 192 0 0 7 31 194 203 0 195 192 95 0
 -0 .0959961427557679 .059088151966747 0 -.996815436760591 -.0797432444523821 0
 .0797432444523821 -.996815436760591 .001 16 195 161 0 ?122 99 193 194 0 0 7 31
 95 202 0 99 194 15 0 +0 .095996142755768 -.059088151966747 -1 0 0 0 0 1 .001 16
 99 160 0 ?107 18 195 95 0 0 7 17 107 0 196 119 197 19 103 99 0 0 +15 196 138 0
 107 198 0 17 119 0 196 197 107 117 190 188 0 187 -17 197 0 196 107 119 101 187
 185 0 184 -17 187 0 199 200 184 117 197 185 0 142 +17 184 0 199 187 201 101 202
 182 0 0 +15 199 146 0 201 203 0 17 201 0 199 184 200 106 125 180 0 179 -17 202
 0 204 122 108 106 184 182 0 201 -15 204 140 0 152 205 0 17 122 0 204 152 202 12
0 109 195 0 166 +17 108 0 204 202 152 101 104 193 0 197 +17 152 0 204 108 122 11
0 148 153 0 145 -17 104 0 102 100 103 110 108 193 0 98 -15 102 134 0 100 92 0 17
 98 0 206 207 105 110 100 18 0 152 +15 206 142 0 105 208 0 17 207 0 206 105 98 1
14 145 146 0 134 -17 105 0 206 98 207 19 116 191 0 190 +17 116 0 209 142 190 114
 105 191 0 207 -17 190 0 209 116 142 19 119 188 0 107 +15 209 144 0 190 210 0 17
 142 0 209 190 116 117 133 143 0 138 -17 138 0 131 133 132 117 200 171 0 0 +17 2
00 0 199 201 187 123 138 171 0 132 -14 210 143 211 ?203 208 209 13 212 +0 0 203
 208 97 81 1 211 477 57 210 213 0 0 214 215 14 203 145 214 ?216 210 199 13 217 +
0 0 216 210 97 14 208 141 218 ?210 205 206 13 219 +0 0 210 205 97 53 212 194 0 2
10 217 219 0 +0 .095996142755768 -.059088151966747 .001 0 0 1 1 0 0 13 97 29 0 0
 0 0 0 0 17 92 14 92 133 220 ?221 0 102 13 14 +0 0 221 0 97 81 1 220 480 57 92 2
22 0 218 223 224 14 221 135 223 ?198 92 225 13 226 +0 0 198 92 97 81 1 223 481 5
7 221 227 0 220 228 229 14 198 137 228 ?205 221 196 13 94 +0 0 205 221 97 15 225
 136 0 109 221 0 53 226 191 0 221 230 94 0 +0 .0959961427557679 .059088151966747
 .001 0 0 1 1 0 0 54 255 230 192 0 205 219 226 0 +0 .100723076923077 -3469446951
953615e-33 1 0 0 .0592769230769231 .001 0 0 -1 53 94 190 0 198 226 14 0 +0 .0959
96142755768 -.059088151966747 .001 0 0 1 1 0 0 14 205 139 231 ?208 198 204 13 23
0 +0 0 208 198 97 53 219 193 0 208 212 230 0 +0 .095996142755768 -.0590881519667
47 .001 0 0 1 1 0 0 81 1 231 483 57 205 232 0 228 233 234 81 1 232 272 80 205 0
 231 235 236 237 81 1 228 482 57 198 235 0 223 231 238 81 1 233 484 57 216 239 0
 231 240 241 82 1 234 -963051407 14 216 147 233 ?151 203 242 13 243 +0 0 151 203
 97 81 1 239 276 80 216 0 233 244 245 246 81 1 240 485 57 151 245 0 233 247 248
 82 1 241 -966393743 14 151 149 240 ?137 216 144 13 249 +0 0 137 216 97 81 1 245
 277 80 151 0 240 239 250 251 81 1 247 486 57 137 250 0 240 252 253 82 1 248 -96
7704463 14 137 151 247 ?165 151 131 13 254 +0 0 165 151 97 81 1 250 278 80 137 0
 247 245 255 256 81 1 252 487 57 165 255 0 247 257 258 82 1 253 -968884111 14 16
5 153 252 ?161 137 154 13 259 +0 0 161 137 97 81 1 255 279 80 165 0 252 250 260
 261 81 1 257 488 57 161 260 0 252 0 262 82 1 258 -970194831 14 161 155 257 ?0 1
65 159 13 263 +0 0 0 165 97 81 1 260 280 80 161 0 257 255 0 264 82 1 262 -971046
799 83 3 264 .792156862745098 .819607843137255 .933333333333333 53 263 200 0 161
 0 259 0 +0 .0959961427557679 .059088151966747 .001 0 0 1 1 0 0 53 259 199 0 165
 263 254 0 +0 .0959961427557679 .059088151966747 .001 0 0 1 1 0 0 54 254 198 0 1
37 259 249 0 +0 .100723076923077 -3469446951953615e-33 1 0 0 .0592769230769231 .
001 0 0 -1 54 249 197 0 151 254 243 0 +0 .100723076923077 -3469446951953615e-33
 1 0 0 .0592769230769231 .001 0 0 -1 53 243 196 0 216 249 217 0 +0 .095996142755
7679 .059088151966747 .001 0 0 1 1 0 0 54 217 195 0 203 243 212 0 +0 .1007230769
23077 -3469446951953615e-33 1 0 0 .0592769230769231 .001 0 0 -1 83 3 261 .792156
862745098 .819607843137255 .933333333333333 83 3 256 .792156862745098 .819607843
137255 .933333333333333 83 3 251 .792156862745098 .819607843137255 .933333333333
333 81 1 244 275 80 203 0 214 213 239 265 83 3 246 .792156862745098 .81960784313
7255 .933333333333333 81 1 214 478 57 203 244 0 211 218 266 81 1 213 274 80 210
 0 211 236 244 267 83 3 265 .792156862745098 .819607843137255 .933333333333333 8
1 1 236 273 80 208 0 218 232 213 268 83 3 267 .792156862745098 .819607843137255
 .933333333333333 81 1 218 479 57 208 236 0 214 220 269 83 3 268 .79215686274509
8 .819607843137255 .933333333333333 82 1 269 -963903375 82 1 266 -965607311 15 2
42 148 0 179 216 0 17 179 0 242 125 163 106 129 177 0 0 +17 125 0 242 163 179 12
3 201 180 0 200 +17 163 0 242 179 125 127 141 157 0 155 -17 129 0 225 166 109 12
7 179 177 0 163 -17 166 0 225 109 129 120 155 167 0 148 -17 109 0 225 129 166 10
6 122 195 0 202 -81 1 235 271 80 198 0 228 227 232 270 82 1 238 -962592655 81 1
 227 270 80 221 0 223 222 235 271 83 3 270 .792156862745098 .819607843137255 .93
3333333333333 81 1 222 269 80 92 0 220 0 227 272 83 3 271 .792156862745098 .8196
07843137255 .933333333333333 83 3 272 .792156862745098 .819607843137255 .9333333
33333333 83 3 237 .792156862745098 .819607843137255 .933333333333333 82 1 229 -9
62199439 82 1 224 -959774607 82 1 215 -964755343 17 145 0 144 148 134 110 207 14
6 0 0 +19 93 83 0 7 0 17 13 S74 20 91 3 0 0 257 260 10 0 0 0 0 0 0 0 0 0 0 0 0 0
 0 0 0 0 74 20 6 1 0 0 2 0 0 0 0 0 0 0 0 0 0 0 0 0 0 0 0 0 0 0 80 2 5 273 274 90
00 0 0 0 0 3 5 0 0 0 TFFFFFFFFFFFFF9 1 79 18 274 MULTI_BODY_ID_20011 0 
